<svg width="95" height="28" viewBox="0 0 95 28" fill="none" xmlns="http://www.w3.org/2000/svg">
<path d="M2.45977 27.04C1.0731 27.04 0.379766 26.1467 0.379766 24.36C0.379766 22.2 1.4331 19.3867 3.53977 15.92C1.7531 15.7333 0.859766 15.3867 0.859766 14.88C0.859766 14.4 1.3931 14.16 2.45977 14.16C2.72643 14.16 3.4331 14.2 4.57977 14.28C9.2731 7.26667 13.0331 2.97333 15.8598 1.4C15.8864 1.37333 15.9664 1.36 16.0998 1.36C16.7931 1.36 17.1398 2.01333 17.1398 3.32C17.1398 4.17333 17.0198 4.74667 16.7798 5.04C16.7531 5.14667 16.7264 5.29333 16.6998 5.48C16.6998 5.66667 16.6998 5.89333 16.6998 6.16C16.6998 7.57333 16.7531 8.96 16.8598 10.32C16.9664 11.6533 17.1264 12.96 17.3398 14.24L19.3398 14C19.7664 13.9467 20.1398 13.9067 20.4598 13.88C20.8064 13.8267 21.1131 13.8 21.3798 13.8C21.5131 13.8 21.5798 13.8267 21.5798 13.88C21.5798 14.04 20.9398 14.24 19.6598 14.48C18.3798 14.6667 17.6598 14.8933 17.4998 15.16C17.8731 18.0667 18.4864 20.2 19.3398 21.56C19.8731 22.4133 20.3798 22.84 20.8598 22.84C21.0198 22.84 21.2198 22.7867 21.4598 22.68C21.6998 22.5467 21.8331 22.48 21.8598 22.48C21.9131 22.5333 21.9398 22.56 21.9398 22.56C21.9398 22.56 21.5398 23.1067 20.7398 24.2C20.4198 24.5467 20.0864 24.72 19.7398 24.72C18.6464 24.72 17.7531 23.2933 17.0598 20.44C16.8731 19.5867 16.6998 18.6933 16.5398 17.76C16.4064 16.8267 16.3131 15.8667 16.2598 14.88C12.9531 15.2 10.3131 15.44 8.33977 15.6C6.36643 15.76 5.0731 15.8533 4.45977 15.88C2.53977 19.32 1.57977 21.9733 1.57977 23.84C1.57977 25.3067 2.24643 26.04 3.57977 26.04C4.16643 26.04 4.89977 25.88 5.77977 25.56V25.64C5.77977 25.8267 5.29977 26.1067 4.33977 26.48C3.37977 26.8533 2.7531 27.04 2.45977 27.04ZM11.4998 14.44C13.1264 14.44 14.7131 14.4 16.2598 14.32C16.1264 13.7067 15.9798 12.96 15.8198 12.08C15.6864 11.1733 15.5531 10.12 15.4198 8.92L14.8598 3.4C12.0598 5.37333 8.92643 9 5.45977 14.28C6.5531 14.3333 7.5931 14.3733 8.57977 14.4C9.5931 14.4267 10.5664 14.44 11.4998 14.44ZM25.8445 25.08C24.0311 25.08 23.1245 24.5867 23.1245 23.6C23.1245 23.3067 23.2178 23.16 23.4045 23.16L24.2045 23.92C24.1245 23.36 24.0845 22.7467 24.0845 22.08C24.0845 21.7067 24.0845 21.4 24.0845 21.16C24.0845 20.8933 24.0978 20.6667 24.1245 20.48C24.4178 16.4533 24.6445 13.2 24.8045 10.72C24.9645 8.24 25.0445 6.52 25.0445 5.56C25.0445 2.89333 24.5245 1.56 23.4845 1.56C23.2445 1.56 23.0045 1.6 22.7645 1.68C22.7378 1.70667 22.6978 1.72 22.6445 1.72C22.5378 1.72 22.4845 1.65333 22.4845 1.52C22.4845 1.33333 22.9511 1.08 23.8845 0.759999C24.7645 0.413332 25.3778 0.239998 25.7245 0.239998C26.3378 0.239998 26.6445 0.786665 26.6445 1.88C26.6445 3.34667 26.5245 5.28 26.2845 7.68C26.0978 9.46667 25.9111 11.3867 25.7245 13.44C25.5645 15.4933 25.4178 17.6667 25.2845 19.96C25.7111 18.6533 26.4445 17.36 27.4845 16.08C28.7111 14.5333 29.8845 13.76 31.0045 13.76C31.9378 13.76 32.4045 14.5467 32.4045 16.12C32.4045 18.36 31.8711 20.3333 30.8045 22.04C29.5778 24.0667 27.9245 25.08 25.8445 25.08ZM25.5245 24.4C27.0978 24.4 28.4445 23.5733 29.5645 21.92C30.5778 20.3733 31.0845 18.7867 31.0845 17.16C31.0845 15.7467 30.7645 15.04 30.1245 15.04C29.4045 15.04 28.5778 15.68 27.6445 16.96C26.2311 18.9333 25.5245 20.7467 25.5245 22.4C25.5245 22.5333 25.5378 22.72 25.5645 22.96C25.5911 23.1733 25.6045 23.3467 25.6045 23.48C25.6045 23.9067 25.5111 24.2133 25.3245 24.4H25.5245ZM35.2854 23.92C34.0321 23.92 33.4054 22.6667 33.4054 20.16C33.4054 19.2267 33.4854 18.2933 33.6454 17.36C33.8054 16.4267 34.0321 15.4933 34.3254 14.56C34.5654 13.8133 34.9787 13.1733 35.5654 12.64C36.1787 12.08 36.8587 11.8 37.6054 11.8C37.8721 11.8 38.0187 11.8533 38.0454 11.96C37.9921 12.0667 37.9254 12.0933 37.8454 12.04C36.7787 12.3067 35.9787 13.4 35.4454 15.32C35.2587 16.0133 35.1121 16.7333 35.0054 17.48C34.9254 18.2267 34.8854 19 34.8854 19.8C34.8854 21.7467 35.2054 22.72 35.8454 22.72C36.7254 22.72 37.4054 21.76 37.8854 19.84C38.2054 18.5067 38.3654 17.16 38.3654 15.8C38.3654 14.92 38.2187 14.2533 37.9254 13.8C37.6321 13.32 37.4854 13.12 37.4854 13.2C37.4854 12.9867 37.6321 12.88 37.9254 12.88C38.7254 12.88 39.1254 13.88 39.1254 15.88C39.1254 17.4 38.8321 18.9867 38.2454 20.64C37.4987 22.8267 36.5121 23.92 35.2854 23.92ZM41.111 23.84C40.6043 23.84 40.351 23.2133 40.351 21.96C40.351 21.4 40.4177 20.6667 40.551 19.76C40.6843 18.8267 40.8843 17.72 41.151 16.44C41.0443 16.2 40.991 15.8933 40.991 15.52C40.991 14.16 41.5777 13.2933 42.751 12.92C42.8577 12.9467 42.911 13.08 42.911 13.32C42.911 13.5067 42.6977 14.36 42.271 15.88C41.791 17.5867 41.551 19.16 41.551 20.6C41.551 21.72 41.7643 22.28 42.191 22.28C42.911 22.28 43.911 21.0267 45.191 18.52C46.2843 16.3867 46.9643 14.7467 47.231 13.6C47.391 12.9867 47.7777 12.68 48.391 12.68C48.711 12.68 48.871 12.8 48.871 13.04C48.871 13.1733 48.7777 13.4 48.591 13.72C48.431 14.04 48.3377 14.2533 48.311 14.36C47.911 16.1467 47.711 17.8667 47.711 19.52C47.711 21.44 48.151 22.4 49.031 22.4C49.511 22.4 50.111 21.88 50.831 20.84C51.551 19.7733 51.9243 19.24 51.951 19.24C52.0577 19.24 52.111 19.3067 52.111 19.44C52.111 19.8133 51.5643 20.6267 50.471 21.88C49.4043 23.08 48.671 23.68 48.271 23.68C47.151 23.68 46.591 22.4933 46.591 20.12C46.591 19.8267 46.6177 19.3867 46.671 18.8C46.7243 18.1867 46.8043 17.4267 46.911 16.52C46.591 17.1333 46.2043 17.8 45.751 18.52C45.3243 19.2133 44.8443 19.9467 44.311 20.72C42.8443 22.8 41.7777 23.84 41.111 23.84ZM54.8998 24.88C53.9131 24.88 53.4198 23.5867 53.4198 21C53.4198 20.3067 53.4598 19.2533 53.5398 17.84C53.6198 16.4 53.7531 14.6133 53.9398 12.48C52.0731 12.72 50.9798 12.84 50.6598 12.84C50.4198 12.84 50.2998 12.7867 50.2998 12.68C50.2998 12.3867 50.5264 12.12 50.9798 11.88C51.3531 11.6667 51.6998 11.56 52.0198 11.56C52.1531 11.56 52.2198 11.5733 52.2198 11.6C52.1931 11.6267 52.1798 11.6533 52.1798 11.68C52.1798 11.7067 52.1664 11.7467 52.1398 11.8H52.2598C52.5798 11.8 53.1531 11.76 53.9798 11.68C54.0598 11.5467 54.0998 10.9867 54.0998 10C54.0998 7.41333 53.8331 6.12 53.2998 6.12C53.1398 6.12 52.8598 6.2 52.4598 6.36C52.0864 6.52 51.8864 6.6 51.8598 6.6L51.7398 6.52C51.7664 6.49333 51.7931 6.46667 51.8198 6.44C51.8464 6.41333 51.8864 6.38667 51.9398 6.36L53.2598 5.12C53.9798 4.45333 54.4064 4.09333 54.5398 4.04C55.1264 4.04 55.4198 4.89333 55.4198 6.6C55.4198 7.13333 55.3931 7.81333 55.3398 8.64C55.2864 9.44 55.2064 10.3867 55.0998 11.48C55.4731 11.4533 55.8064 11.44 56.0998 11.44C56.4198 11.4133 56.6731 11.4 56.8598 11.4C58.2198 11.4 58.9931 11.5733 59.1798 11.92C59.0731 12.08 58.9531 12.16 58.8198 12.16C58.6598 12.16 58.4064 12.1467 58.0598 12.12C57.7398 12.0933 57.4998 12.08 57.3398 12.08C57.1264 12.08 56.8198 12.1067 56.4198 12.16C56.0464 12.1867 55.5931 12.2267 55.0598 12.28C54.9264 13.4533 54.8198 14.5467 54.7398 15.56C54.6598 16.5467 54.6198 17.4267 54.6198 18.2C54.6198 21.8267 55.0731 23.64 55.9798 23.64C56.5398 23.64 57.1131 23.16 57.6998 22.2C57.8064 22.2 57.8598 22.2933 57.8598 22.48C57.8598 22.8533 57.4598 23.3467 56.6598 23.96C55.8864 24.5733 55.2998 24.88 54.8998 24.88ZM82.8113 24.44C81.1847 24.44 80.3713 22.48 80.3713 18.56C80.3713 17.9733 80.398 17.3067 80.4513 16.56C80.5047 15.7867 80.5847 14.9333 80.6913 14C81.0113 11.1467 81.1713 9.62667 81.1713 9.44C79.518 12.6133 77.6913 15.52 75.6913 18.16C72.678 22.0533 70.1713 24 68.1713 24C67.1313 24 66.6113 22.8133 66.6113 20.44C66.6113 18.36 67.038 15.88 67.8913 13C68.1047 12.3333 68.4113 11.4 68.8113 10.2C69.238 9 69.7847 7.53333 70.4513 5.8C70.0247 6.14667 69.6113 6.32 69.2113 6.32C68.918 6.32 68.6113 6.2 68.2913 5.96C67.998 5.69333 67.8513 5.42667 67.8513 5.16C67.8513 5.02667 67.9047 4.96 68.0113 4.96C68.0647 4.98667 68.1047 5 68.1313 5C68.158 5 68.1847 5.01333 68.2113 5.04C68.4513 5.38667 68.7047 5.56 68.9713 5.56C69.5313 5.56 70.0513 5.08 70.5313 4.12C70.638 3.90667 70.7713 3.64 70.9313 3.32C71.118 2.97333 71.318 2.58667 71.5313 2.16C71.5847 2.10667 71.6647 2.08 71.7713 2.08C72.4913 2.08 72.8513 2.36 72.8513 2.92C72.8513 2.97333 72.8247 3.08 72.7713 3.24C71.598 5.34667 70.558 7.8 69.6513 10.6C68.6647 13.64 68.1713 16.2267 68.1713 18.36C68.1713 20.84 68.6513 22.08 69.6113 22.08C71.2647 22.08 73.2647 20.4267 75.6113 17.12C76.3847 16.0267 77.118 14.8933 77.8113 13.72C78.5313 12.52 79.2113 11.2667 79.8513 9.96C80.118 9.45333 80.3713 8.90667 80.6113 8.32C80.8513 7.70667 81.0913 7.06667 81.3313 6.4C81.358 6.08 81.398 5.68 81.4513 5.2C81.5047 4.72 81.5713 4.16 81.6513 3.52C81.838 2.05333 82.2913 1.32 83.0113 1.32C83.6513 1.32 83.9713 1.62667 83.9713 2.24L83.5713 4.04C82.9847 6.62667 82.558 8.98667 82.2913 11.12C82.0247 13.2533 81.8913 15.1733 81.8913 16.88C81.8913 20.6667 82.718 22.56 84.3713 22.56C85.2513 22.56 86.1447 21.6667 87.0513 19.88C87.1313 19.88 87.1847 19.9733 87.2113 20.16C87.2113 20.2133 87.198 20.2533 87.1713 20.28C86.6913 21.24 86.1047 22.1067 85.4113 22.88C84.5047 23.92 83.638 24.44 82.8113 24.44ZM89.6363 25.4C88.383 25.4 87.5297 24.8133 87.0763 23.64C86.9697 23.4 86.9163 23.2 86.9163 23.04C86.9163 22.8533 87.0097 22.76 87.1963 22.76C87.303 22.76 87.383 22.8267 87.4363 22.96C87.8097 24.1333 88.4897 24.72 89.4763 24.72C90.543 24.72 91.0763 24.2 91.0763 23.16C91.0763 22.5733 90.6097 21.5733 89.6763 20.16C88.743 18.7467 88.2763 17.5867 88.2763 16.68C88.2763 15.48 88.8363 14.2667 89.9563 13.04C91.0763 11.8133 92.223 11.2 93.3963 11.2C94.2763 11.2 94.7163 11.6 94.7163 12.4C94.7163 12.6667 94.5163 13.0667 94.1163 13.6C93.743 14.1333 93.4497 14.4 93.2363 14.4C93.2097 14.3733 93.1963 14.3467 93.1963 14.32C93.1963 14.2933 93.303 14.12 93.5163 13.8C93.7297 13.48 93.8363 13.2267 93.8363 13.04C93.8363 12.8533 93.703 12.76 93.4363 12.76C92.583 12.76 91.6897 13.1867 90.7563 14.04C89.8497 14.8667 89.3963 15.72 89.3963 16.6C89.3963 17.4 89.8897 18.4533 90.8763 19.76C91.8897 21.0933 92.3963 22.16 92.3963 22.96C92.3963 23.68 92.1163 24.2667 91.5563 24.72C91.023 25.1733 90.383 25.4 89.6363 25.4Z" fill="white"/>
</svg>
